<svg width="42" height="34" viewBox="0 0 42 34" fill="none" xmlns="http://www.w3.org/2000/svg">
    <path d="M37.2661 0.00126103C36.2323 0.0371277 35.2528 0.491023 34.5359 1.26597C26.9286 9.19474 21.1183 15.8173 14.0585 23.3115L6.53743 16.703V16.7034C5.7315 15.9946 4.6874 15.6483 3.63562 15.7414C2.58417 15.8345 1.61112 16.3593 0.932048 17.1992C0.252575 18.0395 -0.0771161 19.1262 0.0152594 20.2197C0.107635 21.3132 0.614676 22.3235 1.42428 23.028L11.7499 32.1148V32.1143C12.5098 32.78 13.4816 33.1255 14.4739 33.0823C15.4667 33.0396 16.4076 32.6114 17.1114 31.8821C25.6659 22.9662 31.7555 15.8453 40.1459 7.10055V7.10098C40.919 6.32386 41.3563 5.2542 41.3574 4.1364C41.3591 3.01816 40.9247 1.94769 40.1537 1.16843C39.3826 0.389169 38.341 -0.0317925 37.2666 0.00187483L37.2661 0.00126103Z"
          fill="#FFBB38"/>
</svg>
